Coordinates
version=1
nRows=17
nColumns=36
inDegrees=yes

Units are S.I. units (second, meters, Newtons, ...)
If the header above contains a line with 'inDegrees', this indicates whether rotational values are in degrees (yes) or radians (no).

endheader
time	pelvis_tilt	pelvis_list	pelvis_rotation	pelvis_tx	pelvis_ty	pelvis_tz	hip_flexion_r	hip_adduction_r	hip_rotation_r	knee_angle_r	knee_angle_r_beta	ankle_angle_r	subtalar_angle_r	mtp_angle_r	hip_flexion_l	hip_adduction_l	hip_rotation_l	knee_angle_l	knee_angle_l_beta	ankle_angle_l	subtalar_angle_l	mtp_angle_l	lumbar_extension	lumbar_bending	lumbar_rotation	arm_flex_r	arm_add_r	arm_rot_r	elbow_flex_r	pro_sup_r	arm_flex_l	arm_add_l	arm_rot_l	elbow_flex_l	pro_sup_l
      1.94000000	    -22.90727695	     -2.40912320	      0.63260841	     -0.25377353	      0.66570089	     -0.60025006	     77.54223842	     -5.58938685	      3.39592697	     92.34547544	      1.61173260	     28.26186625	    -22.60273376	     -7.44475041	     80.13896152	     -8.41732563	     10.73515564	     92.76259274	      1.61901267	     26.28796703	    -14.62234802	     -7.44475041	    -11.42133328	      3.76061002	     -1.88426068	     85.49398005	    -17.88866875	     13.84185473	     47.08161095	    102.61824247	     88.75562185	    -15.23501212	      6.48188200	     38.74446862	     94.56897615
      1.95000000	    -22.74438952	     -2.48574037	      0.54805294	     -0.25040857	      0.67604094	     -0.60016166	     75.95760785	     -5.23603969	      3.29588408	     90.44709356	      1.57859958	     27.53143824	    -23.11366049	     -7.44674866	     78.46113121	     -8.24780942	     10.77008706	     90.93489817	      1.58711338	     25.68606341	    -15.59548268	     -7.44674866	    -10.55330414	      3.86945892	     -1.66814805	     92.64375156	    -18.94541639	     19.44171918	     49.73468724	    102.76106932	     95.41869813	    -16.26342250	     11.88614949	     39.69625217	     94.29792427
      1.96000000	    -22.58614341	     -2.56721666	      0.43927382	     -0.24659533	      0.68736253	     -0.59991454	     74.23227193	     -4.88876150	      3.13283928	     88.29027127	      1.54095593	     26.27818448	    -23.89310639	     -7.45182515	     76.67198973	     -8.20766477	     10.74606231	     88.89182674	      1.55145505	     24.76014693	    -16.52003746	     -7.45182515	     -9.64506172	      4.01131296	     -1.57337356	    100.02451164	    -19.23716206	     24.71096722	     51.48731236	    101.50150071	    102.83884564	    -17.44831135	     19.34439346	     38.72780931	     92.03771376
      1.97000000	    -22.44580449	     -2.80769668	      0.37342909	     -0.24221549	      0.69962551	     -0.59998079	     72.31055391	     -4.59304461	      2.74046172	     85.86968382	      1.49870871	     25.35140631	    -24.22509017	     -7.45418875	     74.79670429	     -8.11709760	     10.96950017	     86.72823436	      1.51369324	     23.99680135	    -17.15408697	     -7.45418875	     -8.76284375	      4.27618040	     -1.32770122	    107.62417232	    -19.61573254	     30.26447276	     52.46223798	    100.99735835	    110.07956231	    -17.45746156	     24.10773873	     37.67218279	     91.01987580
      1.98000000	    -22.08611289	     -3.08007060	      0.25317947	     -0.23706931	      0.71351244	     -0.59987114	     69.89666022	     -4.20266377	      2.31548972	     83.06422772	      1.44974426	     24.47407877	    -24.61820392	     -7.45442230	     72.44399894	     -8.20195734	     11.07162802	     84.20581837	      1.46966878	     23.33204166	    -17.93090478	     -7.45442230	     -8.18023916	      4.63417005	     -1.18742198	    114.83403563	    -18.81059255	     33.45177358	     52.52472263	    101.10140562	    117.11026130	    -17.15633627	     27.08517906	     35.97517736	     90.78646437
      1.99000000	    -22.23202474	     -3.18772514	      0.08780156	     -0.23163620	      0.72763269	     -0.59956509	     67.96383760	     -3.84313158	      2.11408722	     80.00963342	      1.39643154	     22.71539406	    -25.24643627	     -7.45423842	     70.45479849	     -8.27219506	     10.93534638	     81.26880713	      1.41840826	     21.59528673	    -19.31363212	     -7.45423842	     -6.91371684	      4.77076693	     -0.95547161	    122.51076610	    -18.32255489	     39.74810045	     50.87560960	    101.08683205	    124.68312847	    -16.94206261	     35.20604160	     31.84995314	     90.66760710
      2.00000000	    -21.98102169	     -3.15618324	      0.01317861	     -0.22553247	      0.74336523	     -0.59913203	     65.47777008	     -3.66034351	      1.97338009	     76.75673726	      1.33965779	     21.30375914	    -25.58237031	     -7.47200478	     67.82905042	     -8.32913798	     10.61401259	     78.05810763	      1.36237099	     20.24131261	    -20.29146944	     -7.47200478	     -6.20478117	      4.68508342	     -1.31624376	    129.12687723	    -16.71517863	     43.37076936	     49.54702659	     89.52564134	    132.61462402	    -16.79135116	     46.02293934	     28.19536055	     79.80998015
      2.01000000	    -21.73578717	     -3.09044725	     -0.05384208	     -0.21889888	      0.76026121	     -0.59891765	     62.84877750	     -3.60307426	      1.72849143	     73.17665716	      1.27717360	     19.46886056	    -25.89588024	     -7.47332262	     65.01386752	     -8.37177160	     10.27316566	     74.49742444	      1.30022534	     18.59348929	    -20.97689392	     -7.47332262	     -5.41912654	      4.60877632	     -1.56827192	    135.37827156	    -14.75366616	     46.28163306	     45.96553092	     89.58544004	    139.10341238	    -15.75001077	     52.12429600	     23.56425978	     80.09139874
      2.02000000	    -21.54764469	     -2.92601689	     -0.12058188	     -0.21183067	      0.77818109	     -0.59862270	     60.16956268	     -3.67760657	      1.42210120	     69.29146733	      1.20936425	     17.27567582	    -25.98424455	     -7.47609443	     62.09301228	     -8.40959643	      9.78338846	     70.58770263	      1.23198782	     16.57088961	    -21.47941815	     -7.47609443	     -4.47793326	      4.25927730	     -2.05635261	    140.70154104	    -12.70480557	     48.54024982	     41.71552954	     87.75183276	    144.91078731	    -14.27863403	     58.38058088	     18.70231192	     78.80922691
      2.03000000	    -21.25158927	     -2.70858371	     -0.16966953	     -0.20437609	      0.79753822	     -0.59835845	     57.21590307	     -3.87289089	      0.98356865	     65.01975127	      1.13480874	     14.68914696	    -26.01966297	     -7.48191241	     58.88371440	     -8.43041966	      9.18413528	     66.23997276	      1.15610562	     14.00429984	    -21.97348216	     -7.48191241	     -3.60305110	      4.02416706	     -2.49627549	    145.47353246	    -10.29764726	     50.53193370	     36.84142897	     83.75206044	    149.55858195	    -13.14674196	     63.69197646	     15.03199359	     74.58402789
      2.04000000	    -20.70020100	     -2.51385886	     -0.22021714	     -0.19654150	      0.81868724	     -0.59792340	     53.77199319	     -4.07431986	      0.40172402	     60.25100252	      1.05157837	     11.53896981	    -25.96599443	     -7.48227077	     55.23135990	     -8.57720109	      8.39232346	     61.41373665	      1.07187191	     10.79440429	    -22.45674998	     -7.48227077	     -2.96420244	      3.85861216	     -2.64082672	    149.59221788	     -8.16067615	     51.85880597	     31.76656362	     83.93150689	    152.86717433	    -12.29534239	     64.71286313	     12.82566839	     74.37338607
      2.05000000	    -19.91274817	     -2.35103763	     -0.28796159	     -0.18830736	      0.84152177	     -0.59742301	     49.83334575	     -4.28550442	     -0.34792202	     54.95610564	      0.95916499	      8.21850288	    -25.07426514	     -7.48224044	     51.14516790	     -8.86857826	      7.34768602	     56.13574049	      0.97975350	      7.45125119	    -22.08060068	     -7.48224044	     -2.49983808	      3.58195051	     -2.52333013	    152.78799898	     -6.77784870	     52.25184091	     27.67677046	     84.16896851	    155.39348458	    -11.20890550	     65.27306125	     10.69077948	     74.34880154
      2.06000000	    -18.87037781	     -2.24462843	     -0.32399623	     -0.17965263	      0.86609626	     -0.59715576	     45.32667101	     -4.51748136	     -1.39536754	     48.97563421	      0.85478607	      3.77003580	    -24.20982257	     -7.48278324	     46.58941619	     -9.20591499	      6.07922301	     50.30615392	      0.87800802	      2.84753792	    -21.83546724	     -7.48278324	     -2.20515700	      3.26793288	     -2.12565139	    155.33795471	     -6.38691555	     54.04780331	     24.79217378	     84.56591652	    157.18117669	    -10.11222922	     66.60597755	      8.81715682	     74.20985604
      2.07000000	    -17.54417530	     -2.14303663	     -0.22162550	     -0.17052344	      0.89220428	     -0.59703354	     40.19908981	     -4.86693633	     -2.78498283	     42.35543006	      0.73924171	     -0.33087206	    -21.42763195	     -7.48268302	     41.56546943	     -9.57359739	      4.43826147	     44.00566682	      0.76804378	     -1.33304069	    -19.36820886	     -7.48268302	     -2.05561644	      2.97106620	     -1.99801520	    156.81226344	     -6.23841351	     54.15612334	     22.92546906	     84.73201225	    158.28392065	     -9.45577587	     66.79040363	      7.51728903	     74.20554654
      2.08000000	    -16.03536361	     -2.00139856	      0.02951884	     -0.16113672	      0.91961006	     -0.59709202	     34.60780757	     -5.24643344	     -4.54631152	     34.95345211	      0.61005282	     -7.12043706	    -19.68823320	     -7.48272161	     36.15603266	     -9.83904233	      2.30830794	     36.96475392	      0.64515666	     -7.89154976	    -17.65759366	     -7.48272161	     -1.94244425	      2.72400735	     -1.95662632	    157.84200517	     -6.32013409	     55.55748402	     21.01288835	     85.43666260	    158.78015765	     -9.47391675	     68.33414307	      6.72774590	     74.29616587
      2.09000000	    -14.53550130	     -1.76176879	      0.33058840	     -0.15166171	      0.94754507	     -0.59720915	     28.92567343	     -5.67570350	     -6.69857867	     27.10993792	      0.47315768	    -13.75173781	    -15.35889259	     -7.48217803	     30.57837113	    -10.00149015	     -0.30703205	     29.21779593	      0.50994674	    -14.69739890	    -13.37762406	     -7.48217803	     -1.75444565	      2.45199769	     -2.16241506	    158.30480219	     -6.65420515	     56.36076352	     19.87235752	     86.09699956	    158.96026407	    -10.02612681	     69.35988880	      6.38202646	     74.69730919
      2.10000000	    -13.23094683	     -1.38539887	      0.58136620	     -0.14226121	      0.97552394	     -0.59708968	     23.50946403	     -6.06632589	     -9.16314511	     18.72930940	      0.32688812	    -22.48338927	    -10.66440054	     -7.48117560	     25.14165742	     -9.97920061	     -3.57999667	     20.70918935	      0.36144354	    -23.64779707	     -8.42847794	     -7.48117560	     -1.33858141	      2.05829861	     -2.45615588	    158.46218598	     -7.40240078	     58.16745458	     19.51972350	     87.00227726	    158.91995497	    -11.16135216	     71.57178387	      6.79262478	     75.54345812
